<?xml version="1.0" encoding="utf-8"?>
<!-- Generator: Adobe Illustrator 16.0.0, SVG Export Plug-In . SVG Version: 6.00 Build 0)  -->
<!DOCTYPE svg PUBLIC "-//W3C//DTD SVG 1.1//EN" "http://www.w3.org/Graphics/SVG/1.1/DTD/svg11.dtd">
<svg version="1.1" id="Layer_1" xmlns="http://www.w3.org/2000/svg" x="0px"
     y="0px"
     width="297px" height="80px" viewBox="0 0 297 80" enable-background="new 0 0 297 80" xml:space="preserve">
<path fill="#4F46E5" d="M115.168,26.57v50.368h-12.807V26.57H115.168z M99.398,10.131l9.367-9.462l9.366,9.462l-9.366,9.366
	L99.398,10.131z M126.003,26.57h9.08l1.912,5.065c2.23-2.039,4.778-3.632,7.646-4.779c2.931-1.21,5.734-1.816,8.41-1.816
	c5.672,0,9.908,1.688,12.713,5.066c2.803,3.313,4.204,8.156,4.204,14.527v32.305h-12.807V44.252c0-2.867-0.638-4.907-1.911-6.117
	c-1.211-1.274-3.537-1.912-6.977-1.912c-1.338,0-2.9,0.191-4.684,0.573c-1.72,0.319-3.313,0.765-4.778,1.338v38.804h-12.808V26.57
	L126.003,26.57z M193.251,76.938h-12.808V5.639l12.808-2.293V76.938z M201.311,62.41c0-5.352,1.752-9.365,5.256-12.042
	c3.568-2.739,8.793-4.11,15.678-4.11h8.025v-1.72c0-1.401-0.127-2.644-0.381-3.728c-0.256-1.083-0.734-1.977-1.435-2.678
	c-0.701-0.765-1.657-1.338-2.867-1.721c-1.147-0.382-2.676-0.573-4.588-0.573c-2.356,0-4.651,0.255-6.881,0.765
	c-2.167,0.51-4.397,1.37-6.69,2.581l-3.537-8.793c2.422-1.657,5.289-2.963,8.604-3.919c3.377-0.956,6.722-1.434,10.032-1.434
	c6.5,0,11.406,1.593,14.722,4.779c3.313,3.186,4.97,8.061,4.97,14.624v32.496h-8.982l-1.436-4.303
	c-2.609,2.039-5.256,3.475-7.933,4.303c-2.612,0.893-5.033,1.338-7.265,1.338c-4.971,0-8.762-1.4-11.375-4.205
	C202.617,71.331,201.311,67.443,201.311,62.41z M219.184,68.336c2.229,0,4.332-0.414,6.31-1.242
	c2.036-0.828,3.632-1.752,4.776-2.771v-9.845h-6.881c-7.009,0-10.514,2.61-10.514,7.838c0,1.848,0.51,3.313,1.529,4.396
	C215.488,67.795,217.081,68.336,219.184,68.336z M271.471,78.372c-1.848,0-3.695-0.097-5.543-0.287
	c-1.848-0.128-3.6-0.351-5.257-0.669c-1.657-0.255-3.187-0.573-4.588-0.955c-1.338-0.318-2.453-0.67-3.345-1.052V5.639l12.807-2.293
	v24.945c1.53-0.956,3.25-1.721,5.161-2.294c1.976-0.637,4.078-0.956,6.308-0.956c6.818,0,11.82,2.199,15.006,6.595
	c3.25,4.396,4.875,10.673,4.875,18.829c0,4.396-0.572,8.314-1.721,11.756c-1.146,3.441-2.836,6.372-5.066,8.793
	c-2.166,2.357-4.842,4.174-8.025,5.448C278.958,77.734,275.422,78.372,271.471,78.372z M272.427,35.363
	c-1.466,0-2.804,0.127-4.014,0.382c-1.147,0.255-2.103,0.51-2.868,0.765v31.922c1.02,0.129,1.88,0.223,2.581,0.287
	c0.701,0,1.37,0,2.007,0c1.975,0,3.791-0.318,5.448-0.955c1.72-0.701,3.187-1.753,4.396-3.154c1.275-1.465,2.23-3.313,2.869-5.543
	c0.699-2.295,1.051-5.064,1.051-8.314c0-2.421-0.189-4.587-0.574-6.498c-0.316-1.912-0.924-3.505-1.813-4.779
	c-0.829-1.338-1.978-2.357-3.438-3.059C276.6,35.713,274.721,35.363,272.427,35.363z"/>
    <path fill="#4F46E5" d="M79.646,39.823C79.646,17.83,61.817,0,39.823,0C17.829,0,0,17.83,0,39.823s17.83,39.823,39.823,39.823
	h39.823V39.823z"/>
</svg>
