<svg id="레이어_1" data-name="레이어 1" xmlns="http://www.w3.org/2000/svg" xmlns:xlink="http://www.w3.org/1999/xlink" viewBox="0 0 344.96 81.05"><defs><style>.cls-1{fill:#231815;}.cls-2{fill:url(#linear-gradient);}.cls-3{fill:url(#linear-gradient-2);}.cls-4{fill:url(#linear-gradient-3);}.cls-5{fill:url(#linear-gradient-4);}.cls-6{fill:url(#linear-gradient-5);}.cls-7{fill:url(#linear-gradient-6);}.cls-8{fill:url(#linear-gradient-7);}.cls-9{fill:url(#linear-gradient-8);}.cls-10{fill:url(#linear-gradient-9);}</style><linearGradient id="linear-gradient" x1="44.04" y1="27.46" x2="125.11" y2="27.46" gradientUnits="userSpaceOnUse"><stop offset="0.13" stop-color="#c30d23"/><stop offset="0.15" stop-color="#c61222"/><stop offset="0.34" stop-color="#df4217"/><stop offset="0.44" stop-color="#e95513"/></linearGradient><linearGradient id="linear-gradient-2" x1="44.04" y1="48.63" x2="125.11" y2="48.63" xlink:href="#linear-gradient"/><linearGradient id="linear-gradient-3" x1="44.04" y1="62.01" x2="125.11" y2="62.01" xlink:href="#linear-gradient"/><linearGradient id="linear-gradient-4" x1="44.06" y1="19.8" x2="125.14" y2="19.8" xlink:href="#linear-gradient"/><linearGradient id="linear-gradient-5" x1="44.04" y1="35.63" x2="125.11" y2="35.63" xlink:href="#linear-gradient"/><linearGradient id="linear-gradient-6" x1="44.04" y1="62.38" x2="125.11" y2="62.38" xlink:href="#linear-gradient"/><linearGradient id="linear-gradient-7" x1="44.04" y1="51.5" x2="125.11" y2="51.5" xlink:href="#linear-gradient"/><linearGradient id="linear-gradient-8" x1="44.04" y1="26.12" x2="125.11" y2="26.12" xlink:href="#linear-gradient"/><linearGradient id="linear-gradient-9" x1="44.04" y1="28.28" x2="125.11" y2="28.28" xlink:href="#linear-gradient"/></defs><polygon class="cls-1" points="288.85 9.21 286.91 21.9 306.98 21.9 299.64 71.58 315.48 71.58 322.95 21.9 343.11 21.9 344.96 9.21 288.85 9.21"/><polygon class="cls-1" points="243.51 9.21 234.47 71.58 281.22 71.58 282.8 60.41 251.4 60.41 253.51 45.03 276.32 45.03 277.89 33.87 255.27 33.87 257.2 20.32 283.16 20.32 284.73 9.21 243.51 9.21"/><polygon class="cls-1" points="223.33 9.21 217.71 46.69 191.86 9.21 178.34 9.21 169.11 71.58 183.58 71.58 190.71 34.05 216.52 71.58 228.53 71.58 237.84 9.21 223.33 9.21"/><polygon class="cls-1" points="158.5 9.21 143.56 33.24 136.09 9.21 120.25 9.21 134.33 47.05 130.64 71.58 146.57 71.58 150.17 47.63 175.73 9.21 158.5 9.21"/><path class="cls-1" d="M26,8.35a25.51,25.51,0,0,0-9.11,1.49,17.93,17.93,0,0,0-6.39,4A15.78,15.78,0,0,0,6.8,19.31a16.19,16.19,0,0,0-1.18,6A17.31,17.31,0,0,0,6.19,30a14.63,14.63,0,0,0,2.63,4.77A48,48,0,0,0,14.76,41,111.19,111.19,0,0,1,23,48.92a7.15,7.15,0,0,1,1.73,4.79,7.48,7.48,0,0,1-1.59,4.59q-1.61,2.12-5.43,2.11-6.07,0-15.74-6.07L0,67a37,37,0,0,0,8.69,3.76,37.46,37.46,0,0,0,11.2,1.64q7.92,0,12.71-2.92a16.73,16.73,0,0,0,6.77-7.2,20.19,20.19,0,0,0,2-8.55,17.09,17.09,0,0,0-2.61-9.34q-2.61-4.11-9.54-9.65a38.6,38.6,0,0,1-5.8-5.38,5.77,5.77,0,0,1-1.13-3.48A5.31,5.31,0,0,1,23.94,22a6.38,6.38,0,0,1,4.72-1.67,18.93,18.93,0,0,1,5.79.92,31.81,31.81,0,0,1,5.1,2.12,22.46,22.46,0,0,1,3.11,1.87l2-12.38A42.3,42.3,0,0,0,26,8.35" transform="translate(0 0)"/><path class="cls-2" d="M62.14,31.09c.48-.58,1-1.16,1.49-1.73C78.9,12.41,100.72,7.07,112.27,17.47c4.45,4,6.73,9.79,7,16.34,1.55-5.31,1.33-10.43-1-14.72C114.56,12.53,106.65,9.2,97,9.2c-8.45,0-18.24,2.56-27.63,7.77-9.81,5.44-17.7,12.91-22.23,21a33.33,33.33,0,0,0-2.89,6.78c0,.31.08.62.12.93C47.08,39.18,53.55,34.07,62.14,31.09Z" transform="translate(0 0)"/><path class="cls-3" d="M58.58,35.78c-6.79,3.36-11.38,8.38-12.35,14.51a14.87,14.87,0,0,0-.17,2.9,40.39,40.39,0,0,0,3.8,8.28,36.81,36.81,0,0,1,.33-4.94A49.49,49.49,0,0,1,58.58,35.78Z" transform="translate(0 0)"/><path class="cls-4" d="M104.77,66.4A53.27,53.27,0,0,0,117.35,43l-.08-.06c-4.64,7.63-12.32,15-22.16,20.42-9.39,5.21-19.44,8-28.56,8-.72,0-1.44,0-2.15-.05A35.53,35.53,0,0,1,57,70.19a40.74,40.74,0,0,0,5.53,4.33,60.82,60.82,0,0,0,16.59,6.17,39.24,39.24,0,0,0,4.62.36A53.68,53.68,0,0,0,104.77,66.4Z" transform="translate(0 0)"/><path class="cls-5" d="M68.4,15.19C84.1,6.48,101,5,111.57,10.3A40.53,40.53,0,0,0,44.06,39.59c.4-.85.83-1.71,1.31-2.58C50.08,28.56,58.26,20.81,68.4,15.19Z" transform="translate(0 0)"/><path class="cls-6" d="M118.93,40l-.06.37c.6.47,1.19.94,1.75,1.43a37.63,37.63,0,0,1,4.13,4.16,41.58,41.58,0,0,0,.36-5.39,40.3,40.3,0,0,0-3-15.22A27.62,27.62,0,0,1,118.93,40Z" transform="translate(0 0)"/><path class="cls-7" d="M118.62,44.08l-.41-.35a54.33,54.33,0,0,1-12.69,23.35,55.51,55.51,0,0,1-19.1,14A40.54,40.54,0,0,0,124,50,31.71,31.71,0,0,0,118.62,44.08Z" transform="translate(0 0)"/><path class="cls-8" d="M84.58,62.3A21.77,21.77,0,0,1,63.93,33.64c-1.21.39-2.38.82-3.5,1.29A49.18,49.18,0,0,0,51.2,56.67a33.27,33.27,0,0,0-.28,6.47A40.26,40.26,0,0,0,53.85,67,30,30,0,0,0,64.5,69.31c9.3.46,19.82-2.27,29.62-7.71,9.63-5.33,17.11-12.48,21.55-19.84a51.1,51.1,0,0,0-9.73-5.4,22.11,22.11,0,0,1,.4,4.18A21.76,21.76,0,0,1,84.58,62.3Z" transform="translate(0 0)"/><path class="cls-9" d="M111.59,18.23a20.92,20.92,0,0,0-14.33-5.07c-7.43,0-15.8,3-23.52,8.5a21.76,21.76,0,0,1,31.11,11,55.83,55.83,0,0,1,12.31,6.45c.4-.79.76-1.59,1.08-2.38C118.62,29.24,116.47,22.62,111.59,18.23Z" transform="translate(0 0)"/><path class="cls-10" d="M64.39,30l-.39.45c.48-.15,1-.27,1.48-.4a21.66,21.66,0,0,1,2.83-4Q66.29,27.94,64.39,30Z" transform="translate(0 0)"/></svg>